<?xml version="1.0" encoding="UTF-8"?>
<svg width="95px" height="96px" viewBox="0 0 95 96" version="1.1" xmlns="http://www.w3.org/2000/svg" xmlns:xlink="http://www.w3.org/1999/xlink">
    <title>Light / empty_state_draft</title>
    <defs>
        <linearGradient x1="6.11381507%" y1="9.29193507%" x2="58.7097118%" y2="54.274743%" id="linearGradient-1">
            <stop stop-color="#72ACF1" offset="0%"></stop>
            <stop stop-color="#A7CBF6" offset="100%"></stop>
        </linearGradient>
    </defs>
    <g id="↳-Empty-State-:-illustrations" stroke="none" stroke-width="1" fill="none" fill-rule="evenodd">
        <g id="illustration_draft" transform="translate(-12.000000, -12.000000)" fill-rule="nonzero">
            <g id="Android-/-Light-/-illustration_draft">
                <path d="M98.1,87.375 C75.45,60.975 72,25.35 71.475,15 C71.475,14.85 71.475,14.7 71.4,14.55 C71.1,13.275 69.75,12.45 68.475,12.75 C61.95,14.325 45.525,18.375 32.025,21.675 C32.025,21.75 13.275,48.975 12.75,48.975 C15.15,75 28.95,96.45 34.725,104.4 C36.3,106.5 38.85,107.625 41.4,107.325 C47.85,106.575 60.375,104.4 70.2,98.4 C81.45,91.5 91.35,90.3 96.675,90.3 C97.125,90.3 97.5,90.15 97.8,89.85 C98.625,89.25 98.7,88.125 98.1,87.375 Z" id="draft" fill="#797673"></path>
                <path d="M98.1,87.375 C75.45,60.975 72,25.35 71.475,15 C71.475,14.85 71.475,14.7 71.4,14.55 C71.1,13.275 69.75,12.45 68.475,12.75 C61.95,14.325 45.525,18.375 32.025,21.675 C32.025,21.75 13.275,48.975 12.75,48.975 C15.15,75 28.95,96.45 34.725,104.4 C36.3,106.5 38.85,107.625 41.4,107.325 C47.85,106.575 60.375,104.4 70.2,98.4 C81.45,91.5 91.35,90.3 96.675,90.3 C97.125,90.3 97.5,90.15 97.8,89.85 C98.625,89.25 98.7,88.125 98.1,87.375 Z" id="draft" fill="url(#linearGradient-1)"></path>
                <path d="M12.675,49.05 C12.675,49.05 40.8,49.8 38.4,44.175 C34.425,36.975 31.95,21.675 31.875,21.825 C32.025,21.675 12.675,49.05 12.675,49.05 Z" id="draft" fill="#C4DAF4"></path>
                <path d="M55.425,56.1 L62.025,63.45 L49.05,69.675 C48.6,69.9 48.075,69.675 47.85,69.225 C47.7,68.925 47.7,68.625 47.925,68.325 L55.425,56.1 Z" id="draft" fill="#FFE5B9"></path>
                <path d="M106.05,20.775 L102.75,17.1 C101.85,16.05 100.275,15.975 99.225,16.95 L55.5,56.025 L62.1,63.375 L105.825,24.375 C106.875,23.4 107.025,21.825 106.05,20.775 C106.125,20.85 106.05,20.775 106.05,20.775 Z" id="draft" fill="#0086F0"></path>
            </g>
        </g>
    </g>
</svg>